<?xml version="1.0" standalone="no"?>
<!DOCTYPE svg PUBLIC "-//W3C//DTD SVG 20010904//EN"
 "http://www.w3.org/TR/2001/REC-SVG-20010904/DTD/svg10.dtd">
<svg version="1.0" xmlns="http://www.w3.org/2000/svg"
 width="640.000000pt" height="1280.000000pt" viewBox="0 0 640.000000 1280.000000"
 preserveAspectRatio="xMidYMid meet">
<metadata>
Created by potrace 1.15, written by Peter Selinger 2001-2017
</metadata>
<g transform="translate(0.000000,1280.000000) scale(0.100000,-0.100000)"
fill="#000000" stroke="none">
<path d="M1657 12793 c-10 -3 -30 -11 -45 -19 -25 -13 -23 -14 48 -14 41 0 80
-4 85 -8 29 -20 115 -136 225 -302 272 -412 454 -864 560 -1390 54 -265 70
-393 77 -608 l6 -183 -42 -43 -43 -43 24 -19 c13 -11 29 -27 37 -37 17 -22 4
-34 -78 -74 -89 -44 -140 -136 -126 -232 13 -93 33 -145 72 -183 49 -48 99
-68 165 -67 59 1 63 -1 -57 31 -22 6 -34 13 -28 15 7 3 29 -1 48 -7 19 -6 48
-9 64 -5 24 5 32 2 41 -14 6 -12 15 -21 20 -21 16 0 11 27 -5 34 -8 3 -15 12
-15 21 0 25 17 17 32 -15 7 -16 16 -30 20 -30 9 0 -9 -61 -22 -74 -7 -7 -10
-1 -10 17 0 26 -2 27 -58 27 -31 0 -72 4 -90 9 -42 12 -44 -6 -2 -22 23 -9 30
-18 30 -38 0 -21 8 -30 40 -44 85 -38 149 -140 158 -251 l5 -62 -42 -26 c-58
-37 -61 -52 -19 -90 19 -18 44 -45 54 -61 18 -28 19 -70 23 -1059 2 -567 -2
-1418 -8 -1891 -6 -473 -14 -1665 -17 -2650 -7 -2188 -14 -2750 -33 -2785 -27
-47 -66 -90 -83 -90 -23 0 -58 -47 -58 -79 0 -15 6 -36 14 -47 10 -13 11 -23
4 -31 -7 -8 -5 -19 6 -35 9 -12 16 -28 16 -34 0 -6 -30 -27 -66 -45 -37 -19
-73 -44 -82 -57 -8 -12 -18 -52 -21 -87 -7 -64 -7 -65 17 -65 19 0 22 4 18 20
-3 11 -9 29 -12 40 -10 37 15 91 50 103 22 9 189 12 575 12 l544 0 20 -28 c25
-32 26 -92 3 -116 -15 -14 -59 -17 -344 -21 -259 -4 -303 -6 -212 -12 63 -3
226 -7 363 -8 217 -1 247 1 247 15 0 8 -7 15 -16 15 -14 0 -14 2 0 22 36 50 0
134 -64 152 -19 5 -41 18 -48 28 -7 10 -19 18 -27 18 -23 0 -35 33 -19 54 9
13 10 24 4 36 -7 13 -4 22 10 35 40 36 19 100 -35 111 -24 4 -35 12 -35 24 0
9 -9 25 -20 35 -10 9 -27 37 -36 62 -16 41 -17 106 -10 851 14 1573 30 4945
31 6219 l0 1291 50 47 50 47 -49 45 c-47 42 -50 47 -47 90 5 106 77 220 161
258 35 16 40 22 35 42 -5 20 0 26 25 34 51 18 34 26 -47 22 -99 -6 -103 -7
-96 -34 4 -16 2 -20 -8 -17 -8 2 -16 15 -17 28 -2 13 -11 30 -20 37 -16 11
-16 12 0 13 9 0 19 9 23 19 3 11 12 25 20 31 12 10 15 9 15 -9 0 -12 -6 -21
-15 -21 -17 0 -20 -16 -4 -25 6 -4 16 1 24 11 9 13 27 18 61 19 27 1 60 5 74
10 19 6 22 5 14 -4 -6 -6 -39 -18 -75 -25 -58 -12 -61 -14 -35 -21 16 -4 52
-2 83 5 44 9 65 22 103 59 41 41 50 56 64 119 9 39 16 87 16 106 0 75 -51 155
-120 189 -27 13 -61 34 -77 47 l-28 22 40 35 40 34 -44 40 -44 41 6 186 c16
517 154 1081 388 1582 29 63 79 158 110 210 85 144 273 421 321 474 l43 46
160 8 160 7 -135 6 c-154 8 -3026 19 -3053 12z m806 -69 c13 -64 4 -70 -25
-17 -29 52 -28 63 0 59 10 -2 19 -17 25 -42z m106 -54 c26 -80 45 -117 91
-178 92 -121 219 -206 349 -233 76 -16 221 -6 303 20 70 23 238 127 238 148 0
7 6 16 14 20 32 19 93 126 126 221 33 96 37 102 63 102 32 0 33 -8 12 -99 -25
-103 -80 -196 -170 -286 -145 -145 -273 -200 -465 -200 -172 0 -290 42 -417
147 -104 87 -186 213 -218 335 -23 86 -20 103 13 103 26 0 29 -5 61 -100z m30
51 c28 -130 121 -266 233 -338 94 -61 164 -83 278 -90 105 -6 162 8 288 69
111 55 235 218 257 340 4 20 14 45 22 55 13 17 14 17 9 -2 -34 -152 -73 -221
-179 -326 -105 -105 -220 -149 -387 -149 -107 1 -156 12 -248 57 -128 63 -249
214 -286 359 -19 72 -19 74 -7 74 5 0 14 -22 20 -49z m140 10 c25 -48 70 -94
110 -110 22 -10 38 -30 62 -80 31 -62 37 -68 97 -95 96 -45 152 -46 238 -5 67
32 73 38 100 94 24 50 38 66 79 90 36 22 59 46 84 88 30 51 37 57 67 57 29 0
34 -4 34 -23 0 -36 -69 -127 -127 -168 -29 -20 -70 -61 -90 -92 -68 -101 -139
-140 -258 -141 -124 -2 -208 43 -272 144 -21 33 -47 63 -57 66 -31 10 -116 95
-137 136 -30 58 -26 78 16 78 30 0 37 -5 54 -39z m741 31 c0 -35 -99 -112
-145 -112 -8 0 -19 -17 -25 -41 -25 -91 -89 -139 -185 -139 -31 0 -69 7 -84
15 -40 20 -79 69 -91 114 -8 32 -17 41 -71 66 -60 29 -99 65 -99 91 0 11 62
14 350 13 193 0 350 -3 350 -7z m370 2 c0 -10 -62 -116 -66 -112 -3 3 12 81
21 106 4 12 45 18 45 6z m222 0 c4 -3 -38 -74 -93 -159 -107 -166 -280 -505
-354 -695 -26 -65 -53 -121 -60 -124 -8 -3 -11 -13 -8 -24 2 -10 -9 -59 -26
-108 -108 -319 -169 -617 -206 -1000 -8 -87 -15 -201 -15 -255 0 -53 -3 -104
-6 -113 -5 -14 -30 -16 -169 -16 l-163 0 -6 63 c-3 34 -8 112 -11 172 -18 346
-87 724 -191 1050 -32 99 -58 191 -58 205 0 14 -8 32 -17 40 -9 8 -36 65 -59
125 -89 225 -216 471 -361 695 -41 63 -79 121 -83 128 -6 11 12 13 94 10 l103
-3 132 -232 c213 -372 344 -675 435 -1008 71 -259 140 -642 155 -870 8 -116
12 -135 30 -135 18 0 22 19 30 140 13 206 76 586 131 800 95 363 227 685 425
1036 154 274 156 277 191 270 15 -3 30 -1 33 4 7 11 118 14 127 4z m144 -10
c-3 -7 -43 -68 -89 -136 -328 -480 -553 -1066 -651 -1693 -24 -154 -40 -321
-52 -547 l-6 -108 -34 0 c-21 0 -37 6 -40 15 -9 21 15 433 32 562 23 177 90
494 140 658 90 294 131 400 277 715 39 85 240 420 296 495 36 47 41 50 85 51
35 1 46 -2 42 -12z m231 -17 c-8 -12 -53 -76 -100 -142 -301 -419 -520 -926
-631 -1462 -57 -270 -71 -385 -82 -680 l-7 -183 -28 0 -29 0 0 93 c0 333 64
720 186 1135 79 267 222 597 366 846 52 90 223 342 257 380 43 47 97 57 68 13z
m-2556 -24 c130 -175 216 -310 321 -508 178 -334 268 -566 363 -944 79 -312
111 -530 122 -813 l6 -178 -31 0 -32 0 0 113 c0 111 -21 373 -41 497 -19 124
-91 446 -126 560 -65 215 -157 444 -254 636 -115 227 -197 362 -325 540 -52
72 -94 134 -94 138 0 3 13 6 28 6 22 0 36 -11 63 -47z m57 -5 c144 -196 273
-414 398 -673 94 -196 120 -259 103 -253 -6 2 -28 44 -49 93 -100 238 -306
612 -415 750 -55 70 -96 135 -86 135 6 0 28 -24 49 -52z m182 -125 c124 -185
273 -463 363 -678 189 -452 306 -980 324 -1463 l6 -174 -29 4 -29 3 -7 145
c-19 398 -96 823 -214 1178 -83 249 -141 383 -258 602 -106 199 -130 239 -258
422 -48 70 -88 130 -88 133 0 4 17 5 38 3 36 -3 40 -7 152 -175z m34 145 c103
-137 273 -438 379 -675 160 -356 231 -583 311 -988 45 -228 76 -534 76 -742
l0 -53 -39 0 -38 0 -7 133 c-14 275 -53 558 -117 852 -20 93 -24 105 -84 295
-128 403 -275 710 -505 1055 -47 72 -90 136 -94 143 -5 9 6 12 43 12 45 0 53
-3 75 -32z m682 -75 c43 -25 39 -31 -5 -9 -35 19 -91 81 -91 103 0 9 13 -3 29
-27 16 -24 46 -54 67 -67z m1467 95 c-4 -7 -48 -74 -99 -148 -377 -557 -589
-1137 -679 -1860 -9 -69 -18 -200 -22 -293 -6 -171 -12 -194 -47 -181 -21 8
-22 156 -1 384 65 705 270 1314 638 1895 66 105 127 196 135 203 21 16 86 16
75 0z m47 3 c0 -5 -26 -42 -57 -82 -67 -87 -198 -300 -294 -480 -66 -123 -80
-154 -154 -332 -36 -87 -45 -100 -45 -70 0 47 165 390 285 593 97 164 246 380
262 380 2 0 3 -4 3 -9z m-867 -33 c-19 -32 -99 -95 -109 -85 -3 2 10 14 29 25
19 11 47 36 63 56 36 45 42 46 17 4z m-866 -10 c-3 -8 -6 -5 -6 6 -1 11 2 17
5 13 3 -3 4 -12 1 -19z m42 -103 c0 -5 -6 1 -14 15 -8 14 -14 30 -14 35 0 6 6
-1 14 -15 8 -14 14 -29 14 -35z m166 -147 c20 -27 41 -48 48 -48 7 0 6 -4 -3
-10 -22 -14 78 -56 175 -73 44 -8 68 -15 54 -16 -52 -2 -145 22 -209 54 -64
32 -117 74 -74 59 10 -4 -14 27 -53 68 -40 42 -73 81 -73 88 0 17 92 -67 135
-122z m708 101 c-10 -17 -46 -56 -80 -87 -57 -50 -83 -84 -50 -66 9 5 9 4 1
-5 -6 -6 -18 -9 -27 -5 -14 5 -13 9 8 32 13 14 22 29 19 34 -6 9 15 52 23 45
2 -3 -1 -16 -8 -28 -6 -13 13 1 42 30 30 30 53 58 51 63 -1 5 2 7 7 4 5 -4 12
-2 16 4 16 25 14 6 -2 -21z m-759 -18 c-2 -3 -12 3 -22 13 -16 17 -16 18 5 5
12 -7 20 -15 17 -18z m-48 -38 c15 -20 23 -33 16 -29 -13 8 -56 66 -49 66 3 0
17 -17 33 -37z m109 -20 l18 -28 -21 19 c-12 11 -22 23 -22 28 0 14 7 9 25
-19z m293 -50 c-10 -2 -26 -2 -35 0 -10 3 -2 5 17 5 19 0 27 -2 18 -5z m-346
-275 c97 -133 303 -772 329 -1022 9 -87 1 -339 -8 -266 -10 74 -56 316 -64
338 -5 14 -23 84 -39 156 -64 288 -184 625 -316 888 -19 37 -34 70 -34 74 0 6
71 -83 132 -168z m770 75 c-130 -257 -255 -615 -307 -873 -10 -47 -26 -112
-36 -145 -10 -33 -30 -127 -43 -209 -14 -82 -28 -152 -32 -155 -3 -3 -4 73 -2
169 4 144 10 196 32 293 55 239 177 614 251 772 29 63 162 241 172 231 2 -2
-14 -39 -35 -83z m-766 19 c28 -18 82 -44 120 -59 63 -25 81 -27 204 -28 117
0 145 3 205 24 79 27 180 75 190 91 3 5 15 15 27 21 27 14 19 1 -40 -68 -76
-91 -185 -127 -377 -127 -184 0 -284 34 -361 122 -66 75 -77 92 -44 71 14 -9
48 -30 76 -47z m124 -142 c19 -6 66 -15 104 -20 65 -8 97 -22 83 -36 -6 -7
-95 8 -168 27 -20 5 -42 16 -49 24 -15 18 -15 18 30 5z m448 -6 c-17 -17 -196
-56 -211 -47 -18 11 11 23 78 33 39 5 84 14 100 19 45 14 51 13 33 -5z m-447
-106 c51 -123 62 -141 94 -158 31 -17 32 -27 3 -36 -30 -9 -53 23 -89 118 -14
40 -36 97 -48 126 -11 28 -17 52 -12 52 5 0 28 -46 52 -102z m476 90 c-2 -7
-24 -65 -47 -128 -47 -127 -62 -150 -97 -150 -30 0 -29 4 10 43 17 18 43 60
56 92 52 129 64 155 73 155 6 0 8 -6 5 -12z m-342 -63 c69 -29 87 -30 118 -11
25 16 134 42 142 34 6 -5 -44 -131 -66 -165 -7 -12 -28 -30 -47 -40 -31 -17
-33 -21 -27 -53 16 -94 15 -109 -13 -220 l-30 -115 -11 45 c-6 25 -20 77 -31
117 -24 86 -25 112 -4 141 22 31 11 68 -26 87 -37 19 -51 40 -89 133 l-30 72
27 0 c15 0 54 -12 87 -25z m-60 -244 c3 -5 1 -12 -5 -16 -5 -3 -10 1 -10 9 0
18 6 21 15 7z m52 -29 c-23 -25 -21 -45 12 -145 22 -64 26 -87 17 -87 -22 0
-66 139 -66 209 0 38 2 41 27 41 25 0 25 -1 10 -18z m203 -32 c0 -87 -44 -219
-66 -198 -3 4 6 42 20 85 30 91 32 120 9 145 -15 17 -15 18 10 18 26 0 27 -3
27 -50z m-726 -120 c122 -371 201 -809 210 -1160 2 -85 2 -126 0 -90 -28 455
-103 875 -220 1226 -30 89 -54 168 -53 175 1 22 25 -36 63 -151z m1247 45
c-40 -112 -103 -340 -134 -495 -55 -264 -66 -355 -96 -765 l-8 -110 -2 84 c-4
268 60 705 155 1061 39 146 108 347 112 327 2 -10 -10 -56 -27 -102z m-677
-151 c4 -10 1 -14 -6 -12 -15 5 -23 28 -10 28 5 0 13 -7 16 -16z m96 -4 c0 -5
-4 -10 -10 -10 -5 0 -10 5 -10 10 0 6 5 10 10 10 6 0 10 -4 10 -10z m-95 -40
c-3 -5 1 -20 9 -32 9 -13 16 -43 16 -72 0 -61 -6 -57 -19 14 -5 30 -12 65 -16
78 -5 14 -3 22 4 22 7 0 9 -4 6 -10z m90 -12 c-4 -13 -11 -27 -16 -32 -5 -6
-9 -29 -9 -52 0 -24 -5 -46 -12 -50 -8 -5 -10 9 -5 52 3 32 11 60 17 62 5 2
10 12 10 23 0 10 5 19 11 19 6 0 8 -9 4 -22z m-416 -1194 c2 -2 -30 -4 -73 -4
-47 0 -75 4 -71 10 5 8 133 3 144 -6z m464 -1 c-51 -2 -135 -2 -185 0 -51 1
-10 3 92 3 102 0 143 -2 93 -3z m417 -3 c0 -8 -269 -3 -279 6 -2 2 59 4 137 4
84 0 142 -4 142 -10z m-267 -44 c3 -8 -60 -10 -229 -7 -175 2 -238 0 -249 -9
-12 -10 -15 -9 -15 3 0 9 6 19 13 24 17 11 428 20 454 9 12 -5 24 -14 26 -20z
m-531 -4 c-3 -17 -9 -21 -21 -16 -24 12 -230 20 -248 11 -20 -12 -29 -1 -13
18 11 13 36 15 150 13 l136 -3 -4 -23z m839 18 c10 -6 19 -14 19 -18 0 -4 -65
-7 -144 -7 -131 -1 -145 1 -149 17 -5 17 5 18 125 18 71 0 138 -5 149 -10z
m-822 -66 c2 -2 -43 -4 -102 -4 -60 0 -109 -4 -112 -10 -3 -5 -1 -10 5 -10 6
0 8 -4 5 -10 -4 -6 5 -10 19 -10 14 0 26 -4 26 -9 0 -13 -38 -20 -77 -14 -32
6 -34 7 -18 19 12 9 16 20 11 39 l-7 26 123 -7 c68 -4 125 -8 127 -10z m468 3
c-4 -12 -400 -12 -404 -1 -2 5 83 9 202 9 113 0 204 -4 202 -8z m308 -17 c-5
-23 -3 -32 10 -36 13 -5 14 -8 3 -15 -18 -12 -86 -11 -93 1 -4 6 7 10 27 10
22 0 29 3 19 9 -11 7 -11 10 0 17 19 11 -46 23 -136 24 -49 0 -66 3 -55 10 8
5 64 10 123 10 l109 0 -7 -30z m-865 -14 c0 -11 -19 -15 -25 -6 -3 5 1 10 9
10 9 0 16 -2 16 -4z m203 -3 c-7 -2 -19 -2 -25 0 -7 3 -2 5 12 5 14 0 19 -2
13 -5z m177 -25 c164 -1 173 -2 77 -7 -148 -8 -307 -2 -307 11 0 6 10 8 23 4
12 -3 105 -7 207 -8z m380 -4 c0 -2 -30 -3 -67 -2 -67 1 -67 1 -18 7 47 6 85
3 85 -5z m-692 -1 c-21 -2 -57 -2 -80 0 -24 2 -7 4 37 4 44 0 63 -2 43 -4z
m-118 -27 c0 -2 -7 -23 -15 -46 -8 -24 -15 -77 -15 -120 0 -66 -3 -82 -25
-111 -14 -19 -28 -41 -31 -50 -3 -10 -14 -14 -27 -12 -23 5 -83 -14 -74 -23 2
-3 28 -5 56 -6 40 0 61 6 92 26 22 15 39 21 39 14 0 -6 3 -9 6 -5 3 3 12 47
19 99 17 125 31 171 54 185 19 12 18 9 -3 -40 -32 -73 -39 -122 -19 -139 14
-11 15 -10 9 9 -5 16 -2 25 15 33 18 10 20 18 16 47 -4 20 0 49 7 67 7 17 13
36 14 41 2 18 65 25 114 13 36 -9 53 -9 73 0 33 15 33 -1 0 -34 -14 -14 -25
-29 -25 -34 0 -16 -37 -21 -86 -10 -39 9 -50 8 -62 -4 -8 -8 -12 -18 -8 -24 8
-14 98 -22 118 -11 23 12 23 2 -2 -54 -19 -42 -24 -46 -64 -52 -24 -4 -54 -4
-66 0 -14 5 -25 2 -30 -6 -14 -22 1 -39 35 -39 19 0 46 -5 60 -10 23 -9 25
-13 15 -25 -7 -8 -19 -15 -26 -15 -8 0 -23 -5 -33 -12 -15 -9 -25 -7 -54 11
-23 14 -38 18 -42 11 -3 -6 -29 -22 -58 -36 -68 -35 -133 -30 -206 14 -29 18
-56 30 -61 27 -13 -8 -20 22 -21 93 0 53 -2 62 -10 43 -15 -37 -23 -17 -9 23
7 21 16 33 22 30 7 -4 8 -2 4 5 -11 17 30 68 78 96 43 25 71 30 100 19 18 -7
22 -39 6 -49 -6 -4 -10 5 -10 21 0 25 -2 26 -37 21 -65 -11 -133 -99 -133
-172 0 -91 83 -166 154 -139 25 10 19 24 -10 24 -43 0 -84 36 -84 73 0 18 5
39 10 47 9 12 16 9 45 -22 34 -37 65 -49 65 -27 0 6 -13 24 -30 39 -16 15 -30
37 -30 48 0 12 -4 24 -10 27 -15 9 -12 25 4 19 9 -3 16 4 20 22 l7 27 30 -29
c16 -15 29 -36 29 -46 0 -17 25 -36 35 -26 3 2 -5 21 -16 42 -23 43 -19 89 9
106 16 9 72 14 72 6z m874 -6 c33 -12 45 -69 22 -102 -20 -28 -20 -48 -1 -48
8 0 15 8 15 18 0 10 13 33 29 52 l29 35 7 -27 c4 -16 13 -28 21 -28 21 0 -12
-81 -44 -107 -22 -17 -25 -24 -14 -35 10 -10 20 -4 52 32 33 37 41 42 50 30 5
-8 10 -32 10 -52 0 -31 -5 -40 -30 -53 -16 -8 -40 -15 -55 -15 -31 0 -32 -13
-2 -29 20 -11 19 -11 -10 -6 -18 2 -33 1 -33 -4 0 -5 -9 -7 -20 -4 -11 3 -20
9 -20 14 0 5 8 6 18 2 12 -4 9 3 -10 23 -37 40 -48 75 -48 152 0 37 -7 88 -15
115 -13 44 -13 47 5 47 10 0 30 -4 44 -10z m-329 -13 c17 1 55 3 85 5 46 2 60
-1 87 -21 33 -25 63 -91 63 -139 0 -14 5 -53 11 -86 l10 -61 58 -27 c32 -16
66 -28 77 -28 31 0 64 12 59 20 -3 5 5 12 17 15 56 17 98 81 98 147 0 59 15
82 29 45 6 -16 11 -36 11 -45 0 -15 -2 -15 -10 -2 -7 11 -10 2 -10 -31 0 -51
-19 -117 -29 -101 -4 7 -28 -3 -61 -24 -45 -28 -63 -34 -110 -34 -60 0 -136
29 -146 55 -5 13 -11 12 -41 -6 -32 -20 -38 -20 -74 -9 -22 8 -43 18 -46 23
-9 15 27 37 58 37 37 0 59 9 59 25 0 22 -19 28 -50 15 -24 -10 -36 -9 -69 6
-23 10 -41 23 -41 28 0 6 -7 24 -15 40 -17 33 -11 50 13 37 9 -5 37 -6 62 -2
36 5 45 10 45 26 0 21 -18 23 -95 10 -32 -6 -38 -3 -72 39 -42 49 -47 62 -20
50 9 -4 31 -7 47 -7z m469 -2 c18 -9 50 -33 70 -54 30 -30 36 -43 29 -56 -8
-14 -12 -12 -23 14 -17 41 -75 91 -105 91 -32 0 -40 -3 -41 -15 -1 -5 -2 -14
-3 -20 -2 -13 -21 16 -21 32 0 11 18 19 48 22 8 0 29 -6 46 -14z m-1184 -29
c0 -1 -11 -15 -25 -30 -14 -15 -25 -38 -25 -52 0 -13 -4 -24 -10 -24 -15 0
-12 33 5 56 21 28 18 40 -5 19 -11 -10 -24 -32 -29 -49 -7 -24 -9 -26 -10 -9
-1 28 55 93 80 93 10 0 19 -2 19 -4z m545 -96 c-8 -16 -15 -38 -15 -48 0 -18
-19 -41 -70 -84 -22 -19 -25 -35 -11 -57 13 -20 39 -7 59 29 9 16 20 30 24 30
9 0 22 -85 15 -102 -3 -7 -6 -3 -6 10 l-1 22 -20 -20 c-11 -11 -23 -34 -27
-51 -6 -30 -5 -30 16 -18 11 8 22 21 22 29 1 9 3 8 6 -4 4 -14 -10 -32 -48
-66 -56 -50 -59 -70 -8 -70 22 0 29 5 29 19 0 10 6 24 14 30 11 9 15 5 20 -20
9 -48 8 -57 -11 -55 -26 2 -28 -33 -3 -42 18 -7 19 -10 8 -19 -7 -6 -29 -14
-49 -18 l-36 -7 -26 81 c-31 91 -34 157 -12 246 8 33 14 73 15 88 0 18 17 50
45 87 24 32 50 70 57 85 l13 28 7 -37 c6 -26 4 -46 -7 -66z m130 -10 c37 -50
43 -66 64 -176 25 -129 24 -147 -11 -251 -21 -62 -22 -63 -59 -63 -22 0 -42 7
-50 17 -8 9 -9 14 -3 10 7 -4 15 0 18 9 11 28 6 45 -11 42 -18 -3 -19 -1 -14
60 l2 27 19 -24 c11 -13 20 -29 20 -37 0 -8 7 -14 15 -14 8 0 15 5 15 10 0 6
5 9 12 8 6 -2 13 4 15 13 3 10 -16 33 -47 59 -27 23 -50 49 -50 58 1 12 5 10
15 -8 8 -14 15 -20 15 -15 0 6 4 3 10 -5 16 -26 22 -3 9 34 -14 39 -37 54 -51
34 -6 -8 -7 6 -3 37 8 57 13 66 25 44 23 -40 48 -62 63 -56 22 8 22 52 1 69
-44 35 -74 72 -74 92 0 12 -7 31 -15 42 -9 14 -12 34 -8 59 l6 38 15 -29 c8
-16 34 -54 57 -84z m550 69 c29 -36 40 -85 26 -119 -10 -22 -10 -20 -6 15 7
55 -20 110 -55 110 -15 0 -26 6 -28 17 -5 25 34 11 63 -23z m-10 -28 c10 -20
12 -32 4 -36 -13 -9 -15 -7 -22 33 -8 40 -2 41 18 3z m-1308 -88 c-3 -10 -5
-4 -5 12 0 17 2 24 5 18 2 -7 2 -21 0 -30z m250 -35 c-3 -8 -6 -5 -6 6 -1 11
2 17 5 13 3 -3 4 -12 1 -19z m840 0 c-3 -8 -6 -5 -6 6 -1 11 2 17 5 13 3 -3 4
-12 1 -19z m-866 -61 c-10 -9 -11 -8 -5 6 3 10 9 15 12 12 3 -3 0 -11 -7 -18z
m899 2 c0 -6 -4 -7 -10 -4 -5 3 -10 11 -10 16 0 6 5 7 10 4 6 -3 10 -11 10
-16z m-1125 -69 c3 -5 1 -10 -4 -10 -6 0 -11 5 -11 10 0 6 2 10 4 10 3 0 8 -4
11 -10z m79 -35 c16 -12 17 -15 4 -15 -8 0 -21 7 -28 15 -16 19 -1 19 24 0z
m1217 1 c-6 -8 -22 -16 -34 -20 -21 -5 -21 -4 3 14 29 23 48 26 31 6z m-863
-14 c2 -7 -1 -12 -7 -12 -6 0 -11 5 -11 11 0 5 -5 7 -12 3 -7 -4 -8 -3 -4 5 9
14 28 10 34 -7z m-143 -1 c3 -5 1 -12 -5 -16 -5 -3 -10 1 -10 9 0 18 6 21 15
7z m635 -1 c0 -5 -4 -10 -10 -10 -5 0 -10 5 -10 10 0 6 5 10 10 10 6 0 10 -4
10 -10z m150 -5 c0 -8 -4 -15 -10 -15 -5 0 -10 7 -10 15 0 8 5 15 10 15 6 0
10 -7 10 -15z m-887 -2 c-13 -2 -33 -2 -45 0 -13 2 -3 4 22 4 25 0 35 -2 23
-4z m1022 -3 c-8 -13 -45 -13 -65 0 -11 7 -3 10 28 10 26 0 41 -4 37 -10z
m-865 -16 c0 -9 -5 -14 -12 -12 -18 6 -21 28 -4 28 9 0 16 -7 16 -16z m680 1
c0 -8 -7 -15 -15 -15 -8 0 -15 7 -15 15 0 8 7 15 15 15 8 0 15 -7 15 -15z
m-50 -26 c0 -5 -4 -9 -10 -9 -5 0 -10 7 -10 16 0 8 5 12 10 9 6 -3 10 -10 10
-16z m-580 7 c0 -3 -4 -8 -10 -11 -5 -3 -10 -1 -10 4 0 6 5 11 10 11 6 0 10
-2 10 -4z m-35 -26 c3 -5 1 -10 -4 -10 -6 0 -11 5 -11 10 0 6 2 10 4 10 3 0 8
-4 11 -10z m648 -20 c-3 -11 -9 -20 -15 -20 -5 0 -4 9 2 20 6 11 12 20 14 20
2 0 2 -9 -1 -20z m-653 -16 c0 -8 -5 -12 -10 -9 -6 4 -8 11 -5 16 9 14 15 11
15 -7z m60 -24 c0 -5 -2 -10 -4 -10 -3 0 -8 5 -11 10 -3 6 -1 10 4 10 6 0 11
-4 11 -10z m-162 -42 c39 -24 57 -53 40 -64 -6 -4 -8 -3 -4 4 3 6 2 13 -4 17
-5 3 -10 1 -10 -6 0 -6 -18 5 -40 25 -22 20 -47 36 -55 36 -8 0 -15 5 -15 11
0 15 46 3 88 -23z m52 22 c0 -5 -7 -7 -15 -4 -8 4 -15 8 -15 10 0 2 7 4 15 4
8 0 15 -4 15 -10z m760 6 c0 -3 -4 -8 -10 -11 -5 -3 -10 -1 -10 4 0 6 5 11 10
11 6 0 10 -2 10 -4z m120 1 c0 -2 -22 -18 -50 -36 -27 -18 -50 -37 -50 -42 0
-5 -5 -9 -11 -9 -5 0 -7 6 -3 13 4 6 -2 3 -14 -7 -12 -11 -22 -14 -22 -8 0 16
71 71 105 81 35 11 45 12 45 8z m-513 -39 c-3 -7 -5 -2 -5 12 0 14 2 19 5 13
2 -7 2 -19 0 -25z m253 -28 c8 -16 6 -31 -10 -66 -21 -49 -20 -51 31 -30 14 6
16 2 11 -21 -7 -40 -30 -71 -54 -75 -12 -2 -23 -9 -26 -16 -3 -10 4 -12 32 -7
27 6 36 4 36 -6 0 -29 -16 -38 -64 -36 -53 2 -75 21 -62 53 8 18 8 18 15 0 5
-13 10 -16 15 -8 3 6 0 28 -9 48 -17 42 -20 74 -5 74 6 0 10 7 10 17 0 14 2
14 20 -2 17 -16 20 -16 26 -2 3 8 0 25 -6 37 -9 18 -8 25 6 41 21 23 21 23 34
-1z m-570 -5 c7 -9 8 -15 2 -15 -5 0 -12 7 -16 15 -3 8 -4 15 -2 15 2 0 9 -7
16 -15z m105 -1 c11 -12 13 -20 6 -27 -12 -12 -15 -57 -4 -57 3 0 16 8 27 17
12 10 18 14 13 9 -4 -5 0 -18 9 -28 16 -16 16 -21 0 -61 -21 -55 -20 -60 4
-52 15 5 20 2 20 -14 0 -26 -16 -35 -69 -38 -44 -3 -61 6 -61 36 0 9 9 12 30
9 20 -3 30 0 30 9 0 7 -7 13 -15 13 -25 0 -65 50 -65 81 0 27 1 27 28 14 32
-17 40 -5 18 27 -23 33 -20 78 5 78 4 0 15 -7 24 -16z m545 -3 c0 -6 -4 -13
-10 -16 -5 -3 -10 1 -10 9 0 9 5 16 10 16 6 0 10 -4 10 -9z m-320 -61 c0 -5
-4 -10 -10 -10 -5 0 -10 5 -10 10 0 6 5 10 10 10 6 0 10 -4 10 -10z m-53 -52
c-3 -8 -6 -5 -6 6 -1 11 2 17 5 13 3 -3 4 -12 1 -19z m93 7 c0 -8 -4 -15 -10
-15 -5 0 -10 7 -10 15 0 8 5 15 10 15 6 0 10 -7 10 -15z m-45 -5 c3 -5 1 -10
-4 -10 -6 0 -11 5 -11 10 0 6 2 10 4 10 3 0 8 -4 11 -10z m-45 -51 c0 -5 -4
-9 -10 -9 -5 0 -10 7 -10 16 0 8 5 12 10 9 6 -3 10 -10 10 -16z m100 7 c0 -3
-4 -8 -10 -11 -5 -3 -10 -1 -10 4 0 6 5 11 10 11 6 0 10 -2 10 -4z m-55 -26
c-6 -18 -3 -20 19 -14 34 8 33 -2 -2 -20 -22 -11 -31 -12 -45 -1 -21 15 -22
25 -2 25 8 0 15 7 15 15 0 8 5 15 11 15 6 0 8 -9 4 -20z m58 -70 c-7 -28 -13
-25 -13 6 0 14 4 23 9 20 5 -3 7 -15 4 -26z m-113 0 c0 -11 -4 -20 -10 -20 -5
0 -10 9 -10 20 0 11 5 20 10 20 6 0 10 -9 10 -20z m355 -50 c7 -12 -376 -12
-470 0 -39 4 33 8 202 9 165 0 264 -3 268 -9z m51 -35 c4 -8 1 -22 -6 -30 -11
-13 -61 -15 -359 -13 l-346 3 -3 23 c-4 26 -28 24 -26 -2 2 -18 -11 -21 -22
-4 -4 6 1 17 11 25 15 10 93 13 382 13 315 0 364 -2 369 -15z m43 -31 c-18
-21 -27 -17 -21 11 3 20 7 23 18 14 11 -9 11 -15 3 -25z m-81 -58 c3 -3 -142
-6 -322 -6 -180 0 -325 3 -323 8 6 8 636 6 645 -2z m-501 -52 c10 -10 15 -77
20 -276 10 -407 5 -2101 -8 -2923 -6 -407 -11 -749 -10 -760 6 -129 6 -1726 0
-2195 -5 -338 -11 -950 -14 -1360 -4 -410 -11 -769 -16 -799 -4 -29 -15 -64
-24 -77 -14 -22 -23 -24 -86 -24 -64 0 -70 2 -64 18 33 82 34 94 45 1002 6
498 13 1495 16 2215 2 721 9 1810 15 2420 5 611 7 1484 3 1942 l-7 831 24 4
c39 5 92 -4 106 -18z m327 -4 c21 -21 21 -23 21 -1233 0 -1509 -13 -4630 -25
-5932 -8 -970 -5 -1179 18 -1222 l13 -23 -197 0 c-183 0 -196 1 -189 18 44 99
43 79 50 877 14 1609 29 4781 28 6127 l0 1407 31 5 c17 2 76 2 130 0 84 -3
103 -7 120 -24z m171 -327 c8 -375 9 -2368 1 -2381 -5 -8 -16 -2762 -19 -4587
-2 -947 -1 -1043 14 -1072 9 -17 14 -34 11 -37 -3 -3 -29 -6 -58 -6 -45 0 -56
4 -75 28 l-22 27 7 2385 c3 1312 11 2851 17 3420 11 968 7 2067 -8 2418 l-6
152 65 0 65 0 8 -347z m-577 -8105 c-5 -13 -128 -24 -155 -14 -34 13 4 26 78
26 60 0 80 -3 77 -12z m256 6 c39 -15 -4 -24 -115 -24 -99 0 -119 3 -119 15 0
12 19 15 109 15 60 0 116 -3 125 -6z m184 -3 c18 -11 -18 -21 -80 -21 -53 0
-80 8 -72 21 7 11 134 12 152 0z m177 -6 c0 -5 -33 -11 -72 -13 -67 -3 -85 3
-66 22 11 10 138 2 138 -9z m70 -45 c21 -18 19 -57 -4 -70 -13 -6 -177 -10
-466 -10 l-445 0 -11 24 c-14 30 2 63 33 68 13 2 215 2 451 2 321 -2 431 -5
442 -14z m-21 -106 c52 -20 -25 -24 -441 -24 -301 0 -454 3 -447 10 6 6 165
11 414 13 223 1 417 3 432 5 14 1 33 -1 42 -4z m-2 -78 l5 -23 -156 -6 c-86
-4 -285 -7 -442 -7 l-286 0 4 25 c6 31 4 31 489 33 l382 2 4 -24z m62 -54 c8
-14 -230 -22 -625 -22 -319 0 -382 4 -363 22 9 10 982 9 988 0z"/>
<path d="M2845 12410 c3 -5 8 -10 11 -10 2 0 4 5 4 10 0 6 -5 10 -11 10 -5 0
-7 -4 -4 -10z"/>
<path d="M2925 9860 c-3 -5 -15 -10 -26 -10 -10 0 -19 -4 -19 -10 0 -17 36
-11 55 10 10 11 13 20 7 20 -6 0 -14 -4 -17 -10z"/>
<path d="M3430 10011 c0 -5 7 -25 15 -45 9 -21 11 -36 5 -36 -15 0 -12 -46 3
-59 8 -6 17 -7 22 -3 4 4 5 -5 3 -21 -4 -23 -3 -25 9 -15 19 15 9 77 -23 141
-23 45 -34 57 -34 38z"/>
<path d="M3330 9855 c7 -8 27 -14 44 -14 21 1 24 3 11 6 -11 3 -24 9 -29 14
-6 5 -16 9 -24 9 -12 0 -12 -3 -2 -15z"/>
<path d="M3057 9904 c-4 -4 -7 -14 -7 -23 0 -11 3 -12 11 -4 6 6 10 16 7 23
-2 6 -7 8 -11 4z"/>
<path d="M2970 9615 c0 -41 10 -75 22 -75 6 0 7 17 3 43 -9 52 -25 73 -25 32z"/>
<path d="M3200 9898 c0 -9 5 -20 11 -23 17 -11 18 -2 3 19 -12 17 -14 17 -14
4z"/>
<path d="M3288 9624 c-5 -4 -8 -28 -8 -53 1 -36 3 -42 11 -28 11 19 8 93 -3
81z"/>
<path d="M2573 13 c20 -2 54 -2 75 0 20 2 3 4 -38 4 -41 0 -58 -2 -37 -4z"/>
</g>
</svg>
